<svg xmlns="http://www.w3.org/2000/svg" xmlns:xlink="http://www.w3.org/1999/xlink" viewBox="0 0 347.28 346.5"><defs><style>.cls-1{fill:url(#linear-gradient);}.cls-2{fill:url(#linear-gradient-2);}.cls-3{fill:url(#linear-gradient-3);}.cls-4{fill:url(#linear-gradient-4);}.cls-5{fill:url(#linear-gradient-5);}.cls-6{fill:url(#linear-gradient-6);}.cls-7{fill:url(#linear-gradient-7);}</style><linearGradient id="linear-gradient" y1="92.95" x2="185.9" y2="92.95" gradientTransform="translate(92.95 -38.5) rotate(45)" gradientUnits="userSpaceOnUse"><stop offset="0" stop-color="#cf1717"/><stop offset="1" stop-color="#cf1717"/></linearGradient><linearGradient id="linear-gradient-2" x1="161.38" y1="92.95" x2="347.28" y2="92.95" gradientTransform="translate(8.77 207.06) rotate(-45)" xlink:href="#linear-gradient"/><linearGradient id="linear-gradient-3" x1="-246.44" y1="312.58" x2="-236.38" y2="312.58" gradientTransform="matrix(4.01, 0, 0, -4.01, 1117.57, 1403.5)" xlink:href="#linear-gradient"/><linearGradient id="linear-gradient-4" x1="-235.76" y1="301.91" x2="-225.71" y2="301.91" gradientTransform="matrix(4.01, 0, 0, -4.01, 1122.3, 1408.23)" xlink:href="#linear-gradient"/><linearGradient id="linear-gradient-5" x1="-235.76" y1="312.58" x2="-225.71" y2="312.58" gradientTransform="matrix(4.01, 0, 0, -4.01, 1122.3, 1403.5)" xlink:href="#linear-gradient"/><linearGradient id="linear-gradient-6" x1="-246.44" y1="301.91" x2="-236.38" y2="301.91" gradientTransform="matrix(4.01, 0, 0, -4.01, 1117.57, 1408.23)" xlink:href="#linear-gradient"/><linearGradient id="linear-gradient-7" x1="50.92" y1="337.83" x2="296.48" y2="337.83" gradientTransform="matrix(1, 0, 0, 1, 0, 0)" xlink:href="#linear-gradient"/></defs><title>Asset 4</title><g id="Layer_2" data-name="Layer 2"><g id="Layer_1-2" data-name="Layer 1"><rect class="cls-1" x="-29.83" y="84.28" width="245.56" height="17.34" transform="translate(-38.5 92.95) rotate(-45)"/><rect class="cls-2" x="131.55" y="84.28" width="245.56" height="17.34" transform="translate(140.22 -152.61) rotate(45)"/><rect class="cls-3" x="129.22" y="129.72" width="40.32" height="40.32"/><rect class="cls-4" x="176.74" y="177.24" width="40.32" height="40.32"/><rect class="cls-5" x="176.74" y="129.72" width="40.32" height="40.32"/><rect class="cls-6" x="129.22" y="177.24" width="40.32" height="40.32"/><rect class="cls-7" x="50.92" y="329.16" width="245.56" height="17.34"/></g></g></svg>